# xmcd
#
# Track frame offsets:
#	150
#	15879
#	34450
#	48833
#	68012
#	93639
#	107488
#	124958
#	143562
#	169953
#	188450
#	206791
#	226924
#	251968
#
# Disc length: 3627 seconds
#
# Revision: 1
# Processed by: cddbd v1.5.2PL0 Copyright (c) Steve Scherf et al.
# Submitted via: audiograbber 1.83.01
#
DISCID=bc0e290e
DTITLE=Various Artist - Time-Life Easy 80's Secret Lovers [CD2]
DYEAR=1900
DGENRE=
TTITLE0=Olivia Newton-John - Xanadu
TTITLE1=DeBarge - Who's Holding Donna Now?
TTITLE2=Lionel Richie - Stuck On You
TTITLE3=Chris DeBurgh - Lady In Red
TTITLE4=Kool and The Gang - Cherish
TTITLE5=Rita Coolidge - All Time High
TTITLE6=Captain and Tenille - Do That To Me One More Time
TTITLE7=The Jets - You've Got It All
TTITLE8=Steve Winwood - The Finer Things
TTITLE9=Smokey Robinson - Being With You
TTITLE10=Atlantic Starr - Secret Lovers
TTITLE11=Jeffrey Osborne - You Should Be Mine (The Woo Woo Song)
TTITLE12=Klymaxx - I Miss You
TTITLE13=Endless Love - Lionel Richie and Diana Ross
EXTD=
EXTT0=
EXTT1=
EXTT2=
EXTT3=
EXTT4=
EXTT5=
EXTT6=
EXTT7=
EXTT8=
EXTT9=
EXTT10=
EXTT11=
EXTT12=
EXTT13=
PLAYORDER=
